<?xml version="1.0" encoding="UTF-8" standalone="no"?>
<svg width="16" height="16" viewBox="0 0 16 16" fill="none" xmlns="http://www.w3.org/2000/svg">
  <path fill-rule="evenodd" clip-rule="evenodd" d="M8 1L2 3.5V7.5C2 11.13 4.5 14.3 8 15C11.5 14.3 14 11.13 14 7.5V3.5L8 1ZM12.5 7.5C12.5 10.37 10.69 12.89 8 13.5C5.31 12.89 3.5 10.37 3.5 7.5V4.5L8 2.69L12.5 4.5V7.5Z" fill="#C5C5C5"/>
  <path fill-rule="evenodd" clip-rule="evenodd" d="M7.99939 4.5L11.4994 6V8.5C11.4994 10.43 10.0694 12.2 7.99939 12.75C5.92939 12.2 4.49939 10.43 4.49939 8.5V6L7.99939 4.5ZM7.29939 10.33L10.1494 7.4L9.08939 6.34L7.29939 8.13L6.55939 7.39L5.49939 8.45L7.29939 10.33Z" fill="#C5C5C5"/>
</svg>
